<svg width="232" height="222" viewBox="0 0 232 222" fill="none" xmlns="http://www.w3.org/2000/svg">
<path d="M132.155 46.6432L136.415 62.2058L127.227 72.9622L114.1 66.3813L114.651 49.9888L132.155 46.6432" fill="#F8BD8C"/>
<path d="M85.2516 183.987V261.164H124.395V185.942L87.8188 184.116L85.2516 183.987Z" fill="#31185E"/>
<path d="M111.674 187.574L113.012 191.278L114.33 194.933L118.766 207.211L124.395 222.799L133.435 261.164H168.849C168.828 261.272 168.819 261.328 168.819 261.328L173.681 261.445L173.647 261.164L171.696 245.451L171.411 243.147L170.647 236.983L169.93 231.213L169.389 226.853L166.856 206.444L166.167 200.89L164.514 187.574H111.674Z" fill="#31185E"/>
<path d="M135.411 59.3459C135.411 59.3459 154.656 71.0939 163.137 75.2225C171.618 79.3488 177.162 85.3834 179.12 88.8743C181.077 92.3676 185.643 95.5443 185.317 97.7645C184.991 99.9894 192.819 109.515 194.45 117.451C196.081 125.389 199.016 151.743 199.016 152.695C199.016 153.649 193.798 175.558 193.798 175.558C193.798 175.558 178.467 190.797 175.206 194.291C171.944 197.784 162.158 203.5 160.854 203.5C159.549 203.5 151.394 198.1 151.721 192.704C152.047 187.304 154.33 171.746 156.614 169.207C158.399 167.222 160.583 165.428 162.231 162.767C162.69 162.026 163.108 161.217 163.463 160.317C165.094 156.189 160.528 146.346 160.528 146.346C160.528 146.346 145.85 111.419 146.502 106.657C147.154 101.893 142.262 85.0646 143.566 80.6195C144.871 76.1744 135.411 59.3459 135.411 59.3459" fill="#C5A2FD"/>
<path d="M83.5488 102.193C83.5488 102.193 80.2877 146.982 80.6136 154.601C80.9395 162.221 82.5243 166.666 80.5901 175.239C78.6559 183.813 79.589 186.352 80.5901 189.529C81.5912 192.703 93.9864 192.384 93.9864 192.384L152.067 189.004L173.9 157.459L145.523 69.19L135.411 59.3456C135.411 59.3456 123.831 69.19 114.21 63.3148C114.21 63.3148 87.4641 78.3967 83.713 81.2546C79.9618 84.1125 83.5488 102.193 83.5488 102.193" fill="#C5A2FD"/>
<path d="M134.258 50.8076C135.196 48.6202 128.003 62.9167 120.66 62.1149C114.36 61.428 114.1 49.7877 114.1 49.7877C114.1 49.7877 116.337 53.4638 122.983 53.4709C130.397 53.4803 134.258 50.8076 134.258 50.8076Z" fill="#EAB186"/>
<path d="M101.067 34.2932C101.238 37.4348 103.32 39.8777 105.721 39.7464C108.119 39.6175 109.927 36.9659 109.758 33.8243C109.589 30.6827 107.505 28.2421 105.106 28.3711C102.706 28.5 100.898 31.1516 101.067 34.2932" fill="#F2B588"/>
<path d="M135.829 32.3732C135.998 35.5124 138.081 37.9554 140.481 37.8264C142.881 37.6951 144.689 35.0435 144.519 31.902C144.35 28.7627 142.267 26.3198 139.867 26.4511C137.467 26.58 135.659 29.2316 135.829 32.3732Z" fill="#F2B588"/>
<path d="M103.027 34.1432C105.303 47.516 113.059 59.0086 123.747 58.4318C134.436 57.8551 140.048 47.9005 141.734 32.0543C143.213 18.1516 131.702 7.18658 121.014 7.76331C110.325 8.34005 100.678 20.346 103.027 34.1432Z" fill="#F8BD8C"/>
<path d="M127.56 13.0219C127.527 13.9081 127.665 15.3312 127.579 15.7602C127.342 16.9418 126.72 18.0929 125.715 18.6392C125.021 19.0167 124.219 19.0729 123.438 19.094C120.599 19.169 117.633 17.9452 114.909 18.0718C113.655 18.1304 112.703 19.0377 111.639 19.7481C109.671 21.0634 106.047 20.7539 106.045 20.7562C104.188 23.3516 104.01 27.2199 102.118 29.616C101.66 29.3346 101.25 28.9619 100.824 28.6008C98.2774 26.458 98.1274 26.0688 98.9526 22.7068C99.6114 20.0154 97.8038 18.8666 96.8871 16.7097C95.6282 13.7533 93.4431 11.0127 95.6704 8.70806C98.5658 5.71184 100.671 3.30407 102.516 -0.615867C103.545 -2.80325 104.926 -5.19461 107.184 -5.61426C110.825 -6.29181 113.596 -2.29217 117.261 -4.73276C118.595 -5.62365 119.877 -6.76773 121.441 -6.96936C123.063 -7.17567 124.648 -6.31056 125.968 -5.26962C127.616 -3.96845 129.112 -2.44221 131.034 -1.60523C134.206 -0.229035 137.852 0.324248 140.456 2.89847C142.196 4.6193 143.157 6.95205 144.035 9.25665C144.78 11.2072 146.098 13.4509 146.291 15.5468C146.509 17.9077 145.134 22.9671 143.265 24.4605C142.363 25.1826 141.696 26.9058 141.696 26.9058C141.696 26.9058 138.824 21.619 138.341 20.4116C137.857 19.2042 135.493 16.0837 133.862 14.9396C132.232 13.7955 131.688 13.3759 130.401 12.7733C129.553 12.3748 127.614 11.437 127.56 13.0219Z" fill="#31185E"/>
<path d="M131.109 31.4847C131.158 32.4131 131.953 33.1259 132.882 33.0743C133.81 33.025 134.523 32.2303 134.473 31.3018C134.422 30.3734 133.629 29.6607 132.701 29.71C131.77 29.7615 131.058 30.554 131.109 31.4847Z" fill="#1B191B"/>
<path d="M111.017 32.5678C111.067 33.4962 111.861 34.2089 112.79 34.1597C113.72 34.1105 114.431 33.3157 114.382 32.3873C114.332 31.4565 113.538 30.7462 112.609 30.7954C111.681 30.8446 110.968 31.6394 111.017 32.5678Z" fill="#1B191B"/>
<path d="M136.837 26.6366C137.276 26.6342 137.692 26.374 137.871 25.945C138.111 25.3706 137.838 24.7071 137.264 24.468C131.829 22.2032 127.724 24.3719 127.553 24.4633C127.004 24.761 126.8 25.4456 127.096 25.9942C127.394 26.5405 128.071 26.7444 128.622 26.4514C128.779 26.367 132.01 24.7235 136.396 26.5522C136.54 26.6108 136.69 26.6389 136.837 26.6366" fill="#31185E"/>
<path d="M116.396 27.3534C116.834 27.3229 117.233 27.0369 117.385 26.5961C117.587 26.0077 117.272 25.3629 116.686 25.159C111.118 23.2459 107.158 25.6654 106.992 25.7685C106.464 26.1014 106.305 26.7978 106.633 27.3253C106.966 27.8528 107.655 28.0145 108.185 27.6863C108.338 27.5925 111.458 25.7474 115.95 27.2948C116.098 27.344 116.25 27.3628 116.396 27.3534" fill="#31185E"/>
<path d="M105.178 31.6835C105.18 32.6495 105.351 34.7477 105.982 36.2224C106.472 37.3689 107.147 38.1214 108.153 38.588C108.525 38.7615 108.943 38.8974 109.414 38.9983C111.154 39.3687 113.388 39.235 114.97 38.6653C116.679 38.0511 117.88 36.6491 118.349 34.7196C118.867 32.5815 118.895 30.4949 118.63 29.7189C118.609 29.6931 118.59 29.6649 118.574 29.6345C118.056 28.8209 116.865 28.1692 113.866 27.8457C111.079 27.5432 108.333 28.052 106.88 28.7576C106.767 28.8092 106.666 28.8655 106.57 28.9194C105.571 29.5032 105.269 30.9591 105.178 31.6718V31.6835ZM126.102 34.3023C126.772 36.1708 128.116 37.4345 129.883 37.8588C131.52 38.2551 133.754 38.1472 135.442 37.5916C136.275 37.3173 136.927 36.9492 137.431 36.4475C137.944 35.9387 138.306 35.2917 138.559 34.4641C139.028 32.9308 138.969 30.8255 138.867 29.8642V29.8549C138.72 29.243 138.351 28.0871 137.558 27.4893C137.442 27.4025 137.318 27.3275 137.184 27.2666C135.762 26.6312 132.76 26.3382 129.815 26.9852C126.871 27.63 125.757 28.4036 125.331 29.2711C125.316 29.3016 125.298 29.332 125.281 29.3602C125.101 30.1596 125.354 32.2298 126.102 34.3023ZM102.385 29.25C102.385 29.2476 102.385 29.2476 102.385 29.2476C102.423 29.0038 102.54 28.7811 102.709 28.6052C102.749 28.563 102.793 28.5255 102.84 28.4927C102.84 28.4904 102.842 28.4904 102.842 28.4904C102.929 28.4224 103.028 28.3685 103.133 28.3286C103.529 28.1786 104.08 28.0051 104.805 27.8433C105.231 27.7495 105.914 27.6182 106.76 27.4846C107.569 27.3533 108.528 27.2173 109.552 27.1048H109.559C111.025 26.9407 112.626 26.8235 114.119 26.8258H114.122C114.938 26.8282 115.723 26.8657 116.438 26.9524C116.672 26.9829 116.893 27.011 117.097 27.0438C119.791 27.4565 119.915 28.1199 119.891 28.488C119.887 28.5466 119.948 28.5818 119.997 28.5513C120.562 28.202 121.228 28.0543 121.879 28.0191C122.529 27.984 123.209 28.059 123.809 28.345C123.861 28.3708 123.917 28.3309 123.907 28.27C123.839 27.8832 123.91 27.1329 127.18 26.371C127.244 26.3546 127.309 26.3428 127.375 26.3288C128.21 26.1483 129.145 26.0193 130.118 25.9349H130.12C131.262 25.8341 132.453 25.7896 133.585 25.7825H133.588C135.264 25.7708 136.809 25.8388 137.883 25.9138C138.297 25.9443 138.638 25.9724 138.892 26.0029C139.672 26.092 140.273 26.2139 140.703 26.3218C140.927 26.378 141.119 26.4999 141.262 26.6687L141.264 26.6711C141.434 26.861 141.538 27.1024 141.551 27.3674C141.551 27.3861 141.553 27.4096 141.553 27.4307C141.553 27.8785 141.302 28.3052 140.889 28.474C140.717 28.5443 140.538 28.6685 140.38 28.8796C139.966 29.4328 139.86 29.9041 139.362 30.1362C139.335 30.1479 139.319 30.1737 139.321 30.1995C139.398 31.2943 139.387 33.1605 138.957 34.5719C138.684 35.4651 138.279 36.1732 137.707 36.7312C137.162 37.2704 136.461 37.6689 135.578 37.9596C134.72 38.241 133.724 38.4145 132.734 38.4661C131.696 38.5223 130.657 38.4497 129.783 38.2363C127.881 37.7791 126.435 36.4264 125.717 34.4312C125.063 32.6166 124.798 30.8325 124.843 29.7892C124.695 29.8361 124.559 29.808 124.421 29.6907L124.402 29.6884C124.376 29.6673 124.339 29.6392 124.315 29.611C124.086 29.4 123.361 28.8678 121.929 28.9452C120.494 29.0249 119.833 29.6274 119.629 29.8619C119.605 29.8947 119.631 29.9228 119.608 29.9486H119.655C119.549 30.0541 119.404 30.1057 119.268 30.1034C119.221 30.1034 119.186 30.1338 119.19 30.1807C119.329 31.224 119.211 32.9847 118.768 34.8063C118.269 36.8671 116.968 38.3676 115.125 39.0287C114.279 39.3335 113.249 39.5164 112.209 39.575C111.219 39.6289 110.211 39.5656 109.327 39.378C108.774 39.2561 108.284 39.092 107.846 38.874C106.826 38.3582 106.111 37.5517 105.607 36.3725C105.027 35.015 104.821 33.1629 104.779 32.0657C104.779 32.0375 104.76 32.0141 104.732 32.0047C104.216 31.8289 104.106 31.3694 103.635 30.863C103.471 30.6871 103.302 30.584 103.145 30.5277C102.96 30.4621 102.8 30.3519 102.674 30.2112C102.566 30.0916 102.484 29.9486 102.432 29.7962C102.399 29.6978 102.381 29.597 102.374 29.4891C102.374 29.4704 102.371 29.4493 102.371 29.4258C102.371 29.3648 102.376 29.3062 102.385 29.25" fill="#1B191B"/>
<path d="M123.599 49.1218C125.695 49.1218 127.133 48.1559 127.156 48.1418C127.236 48.0856 127.254 47.9754 127.201 47.8957C127.144 47.816 127.036 47.7972 126.957 47.8511C126.814 47.9496 123.421 50.212 119.419 47.3353C119.342 47.2791 119.232 47.2978 119.175 47.3752C119.119 47.4549 119.136 47.5651 119.215 47.6214C120.805 48.7655 122.324 49.1218 123.599 49.1218" fill="black"/>
<path d="M123.173 42.644C123.206 42.644 123.239 42.637 123.267 42.6182C123.302 42.5948 124.118 42.0673 124.184 41.4202C124.243 40.8411 124.001 37.8895 123.989 37.7652C123.982 37.6691 123.896 37.5964 123.799 37.6035C123.703 37.6128 123.631 37.6972 123.64 37.7957C123.727 38.8437 123.879 40.9466 123.835 41.3851C123.792 41.7836 123.274 42.1962 123.08 42.3205C122.998 42.3721 122.972 42.4823 123.026 42.5643C123.059 42.6159 123.115 42.644 123.173 42.644Z" fill="black"/>
<path d="M120.611 65.7815C122.43 65.7815 124.634 65.4439 127.231 64.4967C127.574 64.3725 132.345 61.9413 133.296 61.4536C133.529 61.3364 133.62 61.0527 133.5 60.823C133.383 60.5932 133.102 60.4994 132.87 60.619C130.713 61.7185 127.189 63.505 126.908 63.6175C118.566 66.6536 114.574 63.0127 114.534 62.9752C114.346 62.797 114.048 62.8064 113.87 62.9916C113.692 63.1791 113.699 63.4745 113.887 63.6527C114.011 63.7723 116.177 65.7815 120.611 65.7815" fill="#9E4AFF"/>
<path d="M124.394 223.268C124.446 223.268 124.5 223.259 124.554 223.24C124.797 223.153 124.924 222.884 124.835 222.64L119.206 207.051C119.117 206.808 118.85 206.681 118.606 206.77C118.362 206.857 118.235 207.126 118.324 207.37L123.953 222.959C124.021 223.151 124.202 223.268 124.394 223.268" fill="#9E4AFF"/>
<path d="M83.3312 94.4198C83.3312 94.4198 73.9814 103.732 74.1995 109.872C74.4175 116.01 71.8081 138.871 72.2419 145.433C72.6779 151.995 71.5901 152.206 70.7203 157.076C69.8505 161.945 66.2611 171.682 65.9353 182.478C65.6094 193.272 60.8806 201.051 64.1417 206.45C67.4029 211.847 69.8505 213.434 69.8505 213.434C69.8505 213.434 70.6664 205.198 72.134 204.394C73.6016 203.592 80.5905 201.529 80.5905 201.529L88.3342 116.01L83.3312 94.4198Z" fill="#C5A2FD"/>
<path d="M165.295 138.179C165.362 138.179 165.431 138.163 165.495 138.132C165.73 138.022 165.829 137.743 165.719 137.509C165.208 136.43 160.938 123.639 160.865 122.654C160.845 122.396 160.619 122.202 160.362 122.223C160.104 122.242 159.91 122.467 159.929 122.725C160.016 123.894 164.415 136.946 164.871 137.91C164.951 138.078 165.12 138.179 165.295 138.179" fill="#9E4AFF"/>
<path d="M188.888 31.03C188.888 31.03 183.08 28.8825 177.829 31.5645C172.239 34.4224 169.401 37.2803 168.115 61.2806C166.829 85.2808 166.972 97.2798 166.829 99.1389C166.686 100.996 212.545 100.424 212.545 100.424V40.7079L188.888 31.03" fill="#0B0635"/>
<path d="M212.042 99.3683C212.042 99.3683 235.388 101.912 234.951 142.143C234.511 182.376 243.087 179.568 236.074 208.222C236.074 208.222 220.21 211.431 211.12 204.946L212.042 125.816V99.3683Z" fill="#FCFCFC"/>
<path d="M155.135 237.38L155.101 237.099H229.984C229.235 232.623 227.526 226.005 225.423 218.711C225.228 218.036 225.029 217.349 224.828 216.662L224.817 216.622C224.075 214.09 223.292 211.499 222.494 208.904L222.456 208.777C218.822 196.964 214.851 185.094 212.677 178.698C212.675 178.693 212.675 178.691 212.675 178.689C212.162 177.181 211.75 175.981 211.467 175.156V175.151C211.18 174.326 211.024 173.875 211.024 173.875H162.297C162.157 174.281 161.908 175.329 161.575 176.881V176.883C161.492 177.27 161.404 177.688 161.311 178.135C160.347 182.773 158.864 190.523 157.297 198.914C157.294 198.917 157.294 198.917 157.297 198.919C157.175 199.571 157.052 200.22 156.928 200.877C156.227 204.639 155.517 208.489 154.832 212.21C154.753 212.646 154.674 213.077 154.594 213.511C154.422 214.444 154.253 215.365 154.086 216.275C154.072 216.355 154.056 216.434 154.042 216.514C153.887 217.368 153.73 218.212 153.581 219.039C153.434 219.836 153.292 220.619 153.149 221.386C151.639 229.676 150.497 236.022 150.302 237.099C150.282 237.206 150.273 237.263 150.273 237.263L155.135 237.38" fill="#FF7C90"/>
<path d="M210.978 100.304C210.978 100.304 221.566 103.382 220.138 125.636C218.71 147.892 230.718 175.488 213.426 178.698L165.782 178.105C161.289 178.049 157.675 174.389 157.675 169.895V99.8069L167.661 98.0743L210.978 100.304" fill="#FCFCFC"/>
<path d="M181.829 92.2812L199.068 92.7993L198.476 77.994H182.686L181.829 92.2812" fill="#F8BD8C"/>
<path d="M200.56 90.0936H178.555C177.134 90.0936 175.908 91.1486 175.619 92.6186L174.37 98.9814L204.646 100.156L203.521 92.7616C203.287 91.2236 202.033 90.0936 200.56 90.0936" fill="#FCFCFC"/>
<path d="M182.366 83.3508C183.345 85.428 185.139 87.4911 187.696 87.7771C192.086 88.2694 196.368 83.3976 198.481 80.7015C198.903 80.1623 199.108 79.7122 199.342 79.4074C198.979 79.6231 198.417 79.9958 197.401 80.3733C195.707 81.0086 193.115 81.6674 189.669 81.6627C187.171 81.6604 185.263 81.0649 183.886 80.3733L182.552 80.3522L182.366 83.3508" fill="#EAB186"/>
<path d="M174.961 60.6051C174.588 72.508 181.679 82.3876 190.801 82.6736C199.923 82.9596 207.62 73.5443 207.993 61.6438C208.367 49.7409 201.275 39.8614 192.153 39.5753C183.032 39.2893 175.335 48.7047 174.961 60.6051Z" fill="#F8BD8C"/>
<path d="M171.197 61.9087C171.197 64.3704 173.335 66.75 175.097 66.75C176.86 66.75 178.29 64.7549 178.29 62.2908C178.29 59.8268 175.947 57.8293 174.185 57.8293C172.422 57.8293 171.197 59.4447 171.197 61.9087" fill="#F8BD8C"/>
<path d="M181.043 54.2073C181.176 54.2073 181.311 54.1885 181.444 54.144C184.988 52.9811 187.322 54.0385 187.419 54.083C188.057 54.3831 188.825 54.1111 189.128 53.4711C189.431 52.8358 189.17 52.0761 188.535 51.7667C188.402 51.701 185.227 50.2006 180.643 51.701C179.969 51.9214 179.601 52.6482 179.822 53.3211C179.999 53.865 180.502 54.2073 181.043 54.2073" fill="black"/>
<path d="M205.679 56.2444C206.091 56.2444 206.496 56.0474 206.744 55.6817C207.141 55.1003 206.997 54.3079 206.417 53.907C206.296 53.8226 203.386 51.8532 198.627 52.6433C197.927 52.7582 197.452 53.4193 197.568 54.1203C197.684 54.8213 198.35 55.2925 199.046 55.1777C202.724 54.5728 204.872 55.9677 204.963 56.0264C205.182 56.1741 205.432 56.2444 205.679 56.2444" fill="black"/>
<path d="M191.544 66.3862H192.83C192.948 66.3862 193.044 66.2901 193.044 66.1729V61.3503C193.044 61.2331 192.948 61.137 192.83 61.137C192.711 61.137 192.615 61.2331 192.615 61.3503V65.9572H191.544C191.425 65.9572 191.33 66.0556 191.33 66.1729C191.33 66.2901 191.425 66.3862 191.544 66.3862Z" fill="black"/>
<path d="M199.687 60.3073C199.687 61.2967 200.327 62.1008 201.116 62.1008C201.905 62.1008 202.545 61.2967 202.545 60.3073C202.545 59.3156 201.905 58.5114 201.116 58.5114C200.327 58.5114 199.687 59.3156 199.687 60.3073Z" fill="black"/>
<path d="M183.079 58.5117C183.079 59.5035 183.719 60.3076 184.508 60.3076C185.297 60.3076 185.937 59.5035 185.937 58.5117C185.937 57.52 185.297 56.7182 184.508 56.7182C183.719 56.7182 183.079 57.52 183.079 58.5117Z" fill="black"/>
<path d="M196.68 72.3504C196.197 74.5542 193.604 75.9867 190.732 75.5764C188.237 75.2201 186.335 73.5836 185.979 71.6846L196.68 72.3504Z" fill="#FCFCFC"/>
<path d="M189.327 30.5608C184.844 39.5518 195.667 42.7825 199.765 47.6472C204.243 52.9668 207.339 63.4676 207.098 70.4588C206.439 89.5357 199.989 104.829 212.569 122.288C209.961 111.684 213.926 103.581 217.232 93.9597C220.868 83.3745 220.806 72.5266 219.552 61.5335C218.606 53.2505 218.298 39.8495 212.068 33.5945C208.491 30.0028 192.183 24.8309 189.327 30.5608" fill="#0B0635"/>
<path d="M190.363 39.6461C190.363 39.6461 188.358 43.1722 183.868 45.3384C177.508 48.4097 176.145 58.512 176.145 58.512L173.564 57.1053L178.56 38.3051L190.363 39.6461" fill="#0B0635"/>
<path d="M153.548 216.453L156.715 215.415C156.715 215.415 157.108 214.857 156.672 214.139C156.236 213.42 155.198 213.443 154.693 213.495C154.187 213.548 153.139 213.94 153.139 213.94C153.139 213.94 151.898 212.522 150.629 211.879C150.629 211.879 150.96 210.137 150.371 209.003C150.371 209.003 151.672 207.676 151.53 205.718C151.53 205.718 151.665 205.481 151.861 205.118C152.028 205.193 152.349 205.341 152.556 205.458C152.845 205.624 152.87 206.567 152.755 207.134C152.641 207.701 152.514 209.497 152.694 210.524C152.874 211.551 153.658 212.247 154.829 212.21C155.999 212.17 156.037 211.024 156.264 210.006C156.492 208.989 156.394 208.034 156.312 206.201C156.231 204.37 156.707 203.453 157.056 201.723C157.406 199.993 157.278 198.605 157.278 198.605C157.124 197.161 156.55 195.414 156.397 194.966C156.566 193.923 156.552 192.943 156.22 192.212C155.624 190.901 157.559 181.333 157.559 181.333L147.779 182.44L148.69 193.262C148.69 193.262 145.629 199.672 144.616 202.551C143.603 205.432 142.866 206.951 143.007 208.381C143.007 208.381 144.493 214.139 146.019 215.41C147.584 216.714 151.062 219.002 152.078 219.079C153.174 219.163 156.085 218.774 156.085 218.774C156.085 218.774 156.733 218.744 157.216 218.479C157.216 218.479 157.685 218.486 157.324 217.508C156.962 216.528 155.958 216.774 153.548 216.453" fill="#F8BD8C"/>
<path d="M163.063 98.8014C163.063 98.8014 149.378 97.8214 144.558 117.013C139.738 136.207 140.245 143.402 140.499 155.626C140.753 167.853 126.497 191.987 139.437 207.542C139.437 207.542 150.393 202.089 160.542 200.014C160.542 200.014 162.316 198.08 161.301 177.906C160.288 157.736 163.063 98.8014 163.063 98.8014" fill="#FCFCFC"/>
<path d="M215.789 168.16C216.026 168.16 216.23 167.979 216.255 167.74C216.274 167.55 216.726 163.042 215.702 158.334C215.178 155.922 215.537 154.531 216.08 152.424C216.562 150.553 217.163 148.225 217.408 144.281C217.936 135.794 214.783 131.007 214.649 130.808C214.504 130.592 214.212 130.536 213.998 130.681C213.783 130.826 213.726 131.117 213.871 131.331C213.919 131.403 216.978 136.099 216.472 144.225C216.232 148.077 215.644 150.358 215.172 152.189C214.616 154.346 214.214 155.905 214.786 158.533C215.778 163.096 215.327 167.597 215.322 167.642C215.295 167.899 215.482 168.129 215.74 168.157C215.756 168.16 215.773 168.16 215.789 168.16" fill="#CCDDE7"/>
<path d="M162.68 175.381C162.696 175.381 162.712 175.381 162.728 175.378C162.986 175.352 163.173 175.123 163.146 174.865C162.763 171.163 162.474 167.831 162.814 164.542C162.992 162.817 163.206 161.086 163.412 159.412C163.871 155.694 164.345 151.847 164.445 147.943C164.452 147.685 164.247 147.47 163.988 147.463C163.73 147.451 163.514 147.662 163.507 147.92C163.408 151.779 162.958 155.432 162.482 159.298C162.275 160.976 162.06 162.711 161.881 164.446C161.531 167.824 161.825 171.207 162.214 174.961C162.239 175.202 162.442 175.381 162.68 175.381Z" fill="#CCDDE7"/>
<path d="M184.144 179.167H212.426C212.685 179.167 212.895 178.956 212.895 178.698C212.895 178.438 212.685 178.229 212.426 178.229H184.144C183.885 178.229 183.675 178.438 183.675 178.698C183.675 178.956 183.885 179.167 184.144 179.167Z" fill="#DB5C6F"/>
<path d="M222.456 208.777C222.456 208.777 226.521 209.028 227.311 209.017C227.311 209.017 227.252 214.685 224.883 216.615L224.827 216.662L222.456 208.777" fill="#EAB186"/>
<path d="M18.9749 199.643C18.9749 199.643 14.0586 201.106 13.0856 201.317C13.0856 201.317 14.769 208.257 18.2247 209.952L18.3067 209.992L18.9749 199.643Z" fill="#EAB186"/>
<path d="M23.2203 88.7177C23.2203 88.7177 21.9402 87.7353 20.2944 89.1795C11.5355 96.8834 12.3795 110.287 12.499 113.724C12.6209 117.161 9.47468 129.708 7.81949 134.416C6.1643 139.121 4.15979 141.909 2.93598 150.103C1.70983 158.297 2.93833 174.494 2.80001 176.492C2.65934 178.489 1.05573 188.184 0.216409 190.842C-0.409562 192.831 0.314872 198.867 2.49757 199.838C4.68026 200.809 6.0963 202.072 14.1284 201.078C22.1582 200.084 20.1021 197.421 20.2334 193.712C20.3647 190.005 21.5299 186.695 21.5651 185.045C21.6002 183.392 21.9214 180.276 21.905 176.131C21.8909 171.986 21.6026 173.597 22.4161 169.583C23.2273 165.569 29.0486 145.268 26.9386 140.27C24.8309 135.272 32.7317 118.516 32.6028 117.252C32.4738 115.988 34.5089 104.505 34.5089 104.505C34.5089 104.505 32.7763 99.1013 30.0215 95.2423C27.2668 91.3833 23.6188 89.2475 23.2203 88.7177" fill="#F6B20A"/>
<path d="M53.3093 159.056V174.332L53.6375 189.766L53.6891 192.127C53.6868 192.129 53.6891 192.129 53.6891 192.132L54.5964 234.684H91.3599L87.7729 191.395L87.3767 186.594L87.2665 185.276L87.0696 182.92C87.0696 182.92 87.0696 182.92 87.0696 182.918L86.3053 173.69L85.5715 164.814L85.0932 159.056H53.3093" fill="#ABABAB"/>
<path d="M15.9149 234.684H52.6807L53.6044 191.363C53.6044 191.36 53.6021 191.358 53.6044 191.356L53.6373 189.766L53.9678 174.332V159.056H22.1816L20.3178 181.558V181.56L20.0575 184.716L20.0271 185.063V185.075L19.8582 187.107V187.11L18.815 199.69L18.8009 199.847L17.9757 209.821L15.9149 234.684" fill="#ABABAB"/>
<path d="M89.5785 71.6261C89.5785 71.6261 91.6557 58.6073 86.5752 51.9209C81.4971 45.2322 83.1124 39.5 83.1124 36.3959C83.1124 33.2895 82.1887 23.4967 77.8022 19.9143C73.4157 16.332 71.5683 8.44992 57.253 11.3172C57.253 11.3172 53.5605 9.16733 44.0936 10.3607C34.6266 11.5563 30.702 23.9749 30.2401 26.6031C29.7783 29.2289 28.8546 34.7243 26.5453 37.3501C24.2383 39.9783 21.929 45.9496 23.5444 51.9209C25.162 57.8923 25.2347 59.0856 23.0051 64.5787C20.7732 70.0717 21.929 71.6261 21.929 71.6261C21.929 71.6261 48.9419 82.7319 89.5785 71.6261" fill="#D1D1D3"/>
<path d="M43.0565 81.6558H65.5938L63.2986 65.9291L63.1438 64.8764L62.8227 62.668H45.8277L45.4643 65.1484L44.8008 69.692L43.0565 81.6558" fill="#F8BD8C"/>
<path d="M44.8011 69.692C46.0812 71.3683 47.9755 72.7843 50.4489 73.0235C55.5809 73.5252 60.591 68.8527 63.2989 65.9291L63.1441 64.8765C62.912 64.9656 62.6518 65.0593 62.3587 65.1531C60.2792 65.8283 57.1025 66.5293 52.8731 66.527C49.8089 66.5199 47.4667 65.8893 45.7717 65.1531L45.4646 65.1484L44.8011 69.692" fill="#EAB186"/>
<path d="M35.8663 42.3935C35.8663 56.758 44.4728 68.4006 55.0909 68.4006C65.709 68.4006 74.3155 56.758 74.3155 42.3935C74.3155 28.0314 65.709 16.3864 55.0909 16.3864C44.4728 16.3864 35.8663 28.0314 35.8663 42.3935Z" fill="#F8BD8C"/>
<path d="M68.4264 46.944C67.4324 49.6401 68.2928 52.4816 70.3489 53.2928C72.4026 54.104 74.876 52.5754 75.8677 49.8792C76.8618 47.1831 76.0014 44.3393 73.9453 43.5281C71.8915 42.7193 69.4181 44.2479 68.4264 46.944Z" fill="#F8BD8C"/>
<path d="M68.3583 37.3101C68.7639 37.3101 69.1484 37.0639 69.3148 36.6559C69.5399 36.1097 69.2937 35.4767 68.7662 35.2446C63.7725 33.0549 59.9792 35.0969 59.8198 35.1813C59.311 35.4626 59.1211 36.1144 59.3907 36.6372C59.6604 37.16 60.284 37.3593 60.7927 37.0826C60.9381 37.0053 63.9226 35.4556 67.9527 37.2257C68.0864 37.2819 68.2247 37.3101 68.3583 37.3101" fill="#1A1A1A"/>
<path d="M49.9099 37.3101C50.3132 37.3101 50.6977 37.0639 50.8665 36.6559C51.0915 36.1097 50.843 35.4767 50.3155 35.2446C45.3218 33.0549 41.5285 35.0969 41.3691 35.1813C40.8627 35.4626 40.6704 36.1144 40.94 36.6372C41.2097 37.16 41.8309 37.3593 42.342 37.0826C42.4874 37.0053 45.4742 35.4556 49.5044 37.2257C49.6356 37.2819 49.774 37.3101 49.9099 37.3101" fill="#1A1A1A"/>
<path d="M62.823 42.8996C62.823 44.1234 63.5826 45.1174 64.518 45.1174C65.4558 45.1174 66.2154 44.1234 66.2154 42.8996C66.2154 41.6734 65.4558 40.6794 64.518 40.6794C63.5826 40.6794 62.823 41.6734 62.823 42.8996Z" fill="#1A1A1A"/>
<path d="M45.3127 42.8996C45.3127 44.1234 46.0723 45.1174 47.0078 45.1174C47.9455 45.1174 48.7051 44.1234 48.7051 42.8996C48.7051 41.6734 47.9455 40.6794 47.0078 40.6794C46.0723 40.6794 45.3127 41.6734 45.3127 42.8996Z" fill="#1A1A1A"/>
<path d="M57.2526 18.7213C57.2526 18.7213 68.567 34.8793 70.1823 43.2819C71.8 51.6821 81.0349 49.0539 81.9586 49.293C82.8823 49.5322 76.4163 22.5427 76.4163 22.5427L57.2526 14.1824V18.7213Z" fill="#D1D1D3"/>
<path d="M57.253 13.1393V18.7215C54.7233 24.02 51.5419 28.9973 47.7345 33.4095C43.6997 38.0844 38.6638 42.1614 33.7357 45.7789C32.8964 46.3932 31.6702 47.0614 30.8989 47.7483C31.5905 43.6642 32.8565 39.5896 33.6302 35.5172C34.3242 31.8575 34.7719 27.9657 35.8973 24.3341C36.2443 23.7973 57.253 13.1393 57.253 13.1393Z" fill="#D1D1D3"/>
<path d="M66.8999 70.693C66.8999 70.693 67.9455 72.7468 67.9455 74.695C67.9455 76.6409 66.2739 81.8315 70.6651 82.0496C75.0563 82.2653 89.47 91.7838 93.2423 94.5948C97.0122 97.4081 95.9666 103.464 95.9666 103.464C95.9666 103.464 88.2298 181.825 86.9755 183.122C85.7213 184.42 67.6853 165.763 60.9403 166.574C54.1976 167.386 56.3405 168.9 53.6232 168.684C50.9037 168.466 49.858 166.305 49.0211 166.413C48.1864 166.521 45.3637 167.062 44.0039 168.035C42.6441 169.008 37.416 167.493 33.8618 170.738C30.3076 173.983 16.0884 184.8 16.0884 184.8C16.0884 184.8 14.2058 169.442 17.3427 164.682C20.4796 159.923 16.0884 117.957 17.3427 116.443C18.597 114.928 19.6426 89.6199 19.6426 89.6199C19.6426 89.6199 32.8677 82.5349 37.1018 82.3731C41.3383 82.2114 40.2387 71.9895 40.2387 71.9895L66.8999 70.693" fill="#F6B20A"/>
<path d="M55.0955 60.335C56.0755 60.335 57.093 60.1591 58.0871 59.7934C58.209 59.7489 58.2723 59.6152 58.2277 59.4933C58.1832 59.3714 58.0472 59.3081 57.9253 59.3526C54.9783 60.4358 51.8344 59.7676 50.28 57.7279C50.2026 57.6248 50.0549 57.606 49.9518 57.6834C49.8486 57.7631 49.8299 57.9085 49.9073 58.0116C51.0537 59.5168 52.9855 60.335 55.0955 60.335" fill="#1A1A1A"/>
<path d="M73.3455 60.1265C74.5341 60.1265 75.6688 59.5427 76.337 58.5791C77.2255 57.292 77.2982 55.5008 76.5199 54.0144C75.8282 52.6945 74.5927 51.9068 73.2142 51.9068C73.1157 51.9068 73.0383 51.9841 73.0383 52.0826C73.0383 52.1787 73.1157 52.2584 73.2142 52.2584C74.4778 52.2584 75.568 52.9571 76.2081 54.1762C76.9278 55.5501 76.8645 57.1982 76.0486 58.3775C75.4227 59.2824 74.3348 59.8217 73.2165 59.7724C72.1404 59.7302 71.219 59.1816 70.6868 58.265C70.6376 58.1806 70.5298 58.1524 70.4477 58.2016C70.3633 58.2485 70.3352 58.3564 70.3821 58.4408C70.9752 59.463 72.0044 60.0772 73.2024 60.1241C73.2493 60.1265 73.2986 60.1265 73.3455 60.1265" fill="#1A1A1A"/>
<path d="M54.9694 50.6809H55.2508C56.1839 50.6809 56.9388 49.9002 56.9388 48.9343V43.8398C56.9388 43.6804 56.8145 43.5491 56.6574 43.5491C56.5027 43.5491 56.3761 43.6804 56.3761 43.8398V48.6436C56.3761 49.4477 55.7478 50.0995 54.9694 50.0995C54.8147 50.0995 54.6881 50.2308 54.6881 50.3902C54.6881 50.552 54.8147 50.6809 54.9694 50.6809Z" fill="#1A1A1A"/>
<path d="M63.8174 178.894L73.9361 172.747L73.2258 170.679C72.7194 169.96 72.1544 169.12 72.8061 168.501C73.4813 167.866 74.5668 167.721 75.4225 168.157L86.7322 173.908L94.7315 180.451C89.5362 185.574 85.696 185.968 83.3585 185.367C83.1124 185.475 82.8709 185.585 82.62 185.684L73.9408 189.029C73.1578 189.444 72.1403 189.247 71.6222 188.579C71.247 188.096 71.0173 187.276 72.6373 186.293L71.0173 187.276C70.185 187.717 69.1089 187.494 68.5814 186.776C68.0914 186.143 68.4313 185.194 69.3621 184.488L68.1055 185.105C67.1982 185.583 66.0001 185.299 65.5055 184.441C65.0741 183.698 65.4117 182.784 66.1924 182.31L67.9812 181.229L65.9017 181.459C64.9029 181.909 63.5338 182.076 63.0438 181.147C62.6241 180.348 62.9945 179.396 63.8174 178.894" fill="#F8BD8C"/>
<path d="M93.2419 94.5947C93.2419 94.5947 115.315 115.5 117.376 118.656C119.315 121.626 120.609 122.344 121.959 123.401C123.31 124.456 122.892 125.314 127.49 132.924C130.92 138.6 132.971 148.013 130.613 154.519C128.172 161.25 121.673 165.843 115.648 169.123C109.119 172.677 107.874 173.828 102.662 176.998C97.4526 180.17 96.0857 180.772 93.2419 183.813C91.5422 185.63 87.5003 186.495 85.0668 187.285C83.9954 187.635 82.6825 186.434 82.366 185.318L77.6419 169.287C77.6419 169.287 81.7236 159.201 89.8917 155.108C94.5501 152.775 99.9916 150.332 102.653 147.983C104.814 146.077 96.9931 142.021 95.3707 140.623C94.0344 139.472 88.8695 134.826 87.9505 134.509C87.0291 134.193 84.272 120.956 84.272 120.757C84.272 120.557 93.2419 94.5947 93.2419 94.5947" fill="#F6B20A"/>
<path d="M54.8469 219.761C54.8516 219.761 54.8539 219.761 54.8586 219.761C55.1189 219.754 55.3228 219.539 55.3158 219.281C55.2877 218.228 54.6101 193.47 53.9537 190.589C53.2081 187.312 47.2719 181.134 47.0211 180.871C46.8406 180.686 46.5428 180.681 46.3576 180.86C46.17 181.04 46.1654 181.338 46.3459 181.523C46.4045 181.586 52.35 187.773 53.0393 190.795C53.6747 193.59 54.371 219.049 54.378 219.304C54.3851 219.56 54.5937 219.761 54.8469 219.761Z" fill="#999999"/>
<path d="M91.9905 138.38C92.1288 138.38 92.2648 138.319 92.3586 138.202C92.5203 137.998 92.4852 137.703 92.2812 137.543C89.5218 135.358 87.0648 132.695 84.9782 129.633C84.6195 129.105 84.2772 128.484 83.9138 127.825C83.0581 126.28 82.1766 124.681 80.8754 123.88C80.655 123.744 80.3666 123.812 80.2307 124.032C80.0947 124.252 80.1627 124.543 80.383 124.679C81.4732 125.352 82.2961 126.838 83.0933 128.278C83.466 128.955 83.82 129.598 84.2045 130.16C86.3427 133.302 88.8653 136.033 91.6998 138.277C91.7865 138.345 91.8897 138.38 91.9905 138.38" fill="#C6900C"/>
<path d="M77.7312 163.719C77.9047 163.719 78.0712 163.623 78.1532 163.456C78.1673 163.426 79.588 160.566 82.6991 159.234C86.0635 157.795 87.0364 156.843 87.0762 156.803C87.2615 156.62 87.2615 156.322 87.0762 156.139C86.8934 155.956 86.598 155.956 86.4151 156.139C86.4081 156.146 85.482 157.023 82.3287 158.374C78.887 159.846 77.3725 162.917 77.3092 163.046C77.1967 163.281 77.2928 163.56 77.5273 163.672C77.5929 163.705 77.6609 163.719 77.7312 163.719Z" fill="#C6900C"/>
<path d="M19.65 174.349C19.6875 174.349 19.725 174.344 19.7625 174.335C20.0134 174.274 20.1681 174.02 20.1072 173.77C20.1001 173.746 19.5351 171.298 20.3018 166.832L20.4682 165.883C20.8855 163.484 20.902 163.391 20.63 162.132C20.5221 161.635 20.3744 160.952 20.1939 159.79C19.5445 155.637 23.3027 141.083 23.3425 140.938C23.4058 140.687 23.2558 140.431 23.0049 140.366C22.7541 140.3 22.4985 140.45 22.4329 140.701C22.2758 141.308 18.588 155.593 19.2655 159.933C19.4531 161.124 19.6031 161.82 19.7133 162.331C19.9454 163.412 19.9454 163.412 19.5445 165.723L19.378 166.675C18.5739 171.355 19.1694 173.884 19.1952 173.99C19.2468 174.206 19.439 174.349 19.65 174.349" fill="#C6900C"/>
</svg>
