<svg
              class="absolute top-0 right-0"
              width="434"
              height="283"
              viewBox="0 0 434 283"
              fill="none"
              xmlns="http://www.w3.org/2000/svg"
            >
              <path
                fill-rule="evenodd"
                clip-rule="evenodd"
                d="M166.855 160.69C166.855 177.59 185.151 188.153 199.787 179.703L377.616 77.0327C392.252 68.5825 392.252 47.457 377.616 39.0069L199.787 -63.6629C185.151 -72.1131 166.855 -61.5504 166.855 -44.65L166.855 160.69ZM210.242 106.825C210.348 114.082 218.404 118.733 224.741 115.197L301.745 72.2328C308.082 68.6967 307.949 59.6258 301.505 55.9053L223.208 10.7004C216.764 6.97985 208.842 11.4 208.948 18.6567L210.242 106.825Z"
                fill="#4565E5"
              />
              <path
                fill-rule="evenodd"
                clip-rule="evenodd"
                d="M96.9788 120.346C96.9788 137.247 115.274 147.809 129.91 139.359L307.739 36.6894C322.376 28.2392 322.376 7.11378 307.739 -1.33641L129.91 -104.006C115.274 -112.456 96.9788 -101.894 96.9788 -84.9933L96.9788 120.346ZM140.365 66.4824C140.472 73.7391 148.527 78.3898 154.865 74.8537L231.868 31.8897C238.206 28.3536 238.073 19.2828 231.629 15.5622L153.331 -29.6427C146.887 -33.3632 138.965 -28.9431 139.072 -21.6864L140.365 66.4824Z"
                fill="#3AC633"
              />
              <path
                fill-rule="evenodd"
                clip-rule="evenodd"
                d="M237.004 201.189C237.004 218.09 255.299 228.652 269.935 220.202L447.764 117.532C462.4 109.082 462.4 87.9568 447.764 79.5066L269.935 -23.1632C255.299 -31.6134 237.004 -21.0507 237.004 -4.15028L237.004 201.189ZM280.389 147.326C280.496 154.582 288.551 159.233 294.889 155.697L371.892 112.733C378.23 109.197 378.097 100.126 371.653 96.4055L293.355 51.2006C286.911 47.4801 278.989 51.9002 279.096 59.1569L280.389 147.326Z"
                fill="#F8AC16"
              />
              <path
                fill-rule="evenodd"
                clip-rule="evenodd"
                d="M209.346 45.7794L208.948 18.6569C208.841 11.4002 216.763 6.98006 223.208 10.7006L301.505 55.9055C307.949 59.626 308.082 68.6969 301.744 72.233L279.72 84.5217L280.385 133.169L377.616 77.0327C392.252 68.5825 392.252 47.457 377.616 39.0068L199.787 -63.663C185.151 -72.1131 166.855 -61.5504 166.855 -44.6501L166.855 69.853L209.346 45.7794Z"
                fill="#4565E5"
              />
            </svg>